<?xml version="1.0" standalone="no"?><!DOCTYPE svg PUBLIC "-//W3C//DTD SVG 1.1//EN" "http://www.w3.org/Graphics/SVG/1.1/DTD/svg11.dtd"><svg t="1688110275135" class="icon" viewBox="0 0 1024 1024" version="1.1" xmlns="http://www.w3.org/2000/svg" p-id="3272" xmlns:xlink="http://www.w3.org/1999/xlink" width="200" height="200"><path d="M846.31 960H177.69c-40.09 0-66.86-26.74-66.86-66.86V792.5c0-18.27 14.81-33.08 33.08-33.08h0.69c18.27 0 33.08 14.81 33.08 33.08v100.64h668.61V792.5c0-18.27 14.81-33.08 33.08-33.08h0.69c18.27 0 33.08 14.81 33.08 33.08v100.64c0.03 40.12-26.74 66.86-66.83 66.86z" p-id="3273" fill="#333333"></path><path d="M512 779.46c-6.66 0-20.11-6.69-26.77-6.69L201.07 488.58c-12.91-12.91-12.92-33.85-0.02-46.77 12.92-12.93 33.87-12.94 46.8-0.02l230.72 230.66V97.08c0-18.27 14.81-33.08 33.08-33.08h0.69c18.27 0 33.08 14.81 33.08 33.08v575.36l230.72-230.66c12.93-12.92 33.88-12.91 46.8 0.02 12.9 12.92 12.9 33.86-0.02 46.77l-284.15 284.2c-6.66 0.03-20.11 6.69-26.77 6.69z" p-id="3274" fill="#333333"></path></svg>