<?xml version="1.0" standalone="no"?><!DOCTYPE svg PUBLIC "-//W3C//DTD SVG 1.1//EN" "http://www.w3.org/Graphics/SVG/1.1/DTD/svg11.dtd"><svg t="1681544636450" class="icon" viewBox="0 0 1024 1024" version="1.1" xmlns="http://www.w3.org/2000/svg" p-id="3241" xmlns:xlink="http://www.w3.org/1999/xlink" width="200" height="200"><path d="M696.32 512a184.32 184.32 0 1 1-368.64 0 184.32 184.32 0 0 1 368.64 0z m-64 0a120.32 120.32 0 1 0-240.64 0 120.32 120.32 0 0 0 240.64 0z" p-id="3242" fill="#ffffff"></path><path d="M71.488 526.72c86.016 168.96 255.04 273.28 440.832 273.28 185.152 0 354.176-104.32 440.192-273.28L960 512l-7.488-14.72C866.56 328.96 697.472 224 512.32 224c-185.792 0-354.816 104.96-440.832 273.28L64 512l7.488 14.72z m440.832 209.28C355.2 736 212.416 650.88 135.04 512 212.416 373.12 355.2 288 512.32 288c156.48 0 299.264 85.12 377.216 224-77.312 138.88-220.736 224-377.216 224z" p-id="3243" fill="#ffffff"></path></svg>