<?xml version="1.0" standalone="no"?><!DOCTYPE svg PUBLIC "-//W3C//DTD SVG 1.1//EN" "http://www.w3.org/Graphics/SVG/1.1/DTD/svg11.dtd"><svg t="1688110247571" class="icon" viewBox="0 0 1024 1024" version="1.1" xmlns="http://www.w3.org/2000/svg" p-id="2717" xmlns:xlink="http://www.w3.org/1999/xlink" width="200" height="200"><path d="M863.35 960h-702.7c-42.13 0-70.27-28.1-70.27-70.27V780.76c0-17.43 14.13-31.57 31.57-31.57h7.14c17.43 0 31.57 14.13 31.57 31.57v108.97h702.7V780.76c0-17.43 14.13-31.57 31.57-31.57h7.14c17.43 0 31.57 14.13 31.57 31.57v108.97c-0.02 42.17-28.15 70.27-70.29 70.27z" p-id="2718" fill="#ffffff"></path><path d="M476.86 752.76V179.99L232.12 424.67c-12.33 12.33-32.33 12.32-44.65-0.02l-4.53-4.53c-12.31-12.33-12.31-32.3 0.01-44.63L483.86 74.55c14-14.07 35.14-14.07 49.13 0L833.91 375.5c12.32 12.32 12.33 32.3 0.01 44.63l-4.53 4.53c-12.32 12.34-32.32 12.35-44.65 0.02L540 179.99v572.77c0 17.43-14.13 31.57-31.57 31.57-17.43-0.01-31.57-14.14-31.57-31.57z" p-id="2719" fill="#ffffff"></path></svg>