<?xml version="1.0" standalone="no"?><!DOCTYPE svg PUBLIC "-//W3C//DTD SVG 1.1//EN" "http://www.w3.org/Graphics/SVG/1.1/DTD/svg11.dtd"><svg t="1688110254622" class="icon" viewBox="0 0 1024 1024" version="1.1" xmlns="http://www.w3.org/2000/svg" p-id="2904" xmlns:xlink="http://www.w3.org/1999/xlink" width="200" height="200"><path d="M653.54 707.45C498.1 833.17 270.18 809.07 144.46 653.63 18.84 498.32 42.96 270.17 198.28 144.55 353.72 18.84 581.64 42.93 707.36 198.37c107.37 132.76 107.37 322.5 0 455.26l241.48 241.35c14.87 14.86 14.88 38.96 0.03 53.84-14.87 14.89-38.99 14.9-53.87 0.02L653.54 707.45zM425.8 139.62c-157.93 0-285.96 128.03-285.96 285.96 0 157.93 128.03 285.96 285.96 285.96 157.84 0 285.84-127.89 285.96-285.74-0.08-157.92-128.02-285.97-285.96-286.18z" p-id="2905" fill="#333333"></path></svg>