<?xml version="1.0" standalone="no"?><!DOCTYPE svg PUBLIC "-//W3C//DTD SVG 1.1//EN" "http://www.w3.org/Graphics/SVG/1.1/DTD/svg11.dtd"><svg t="1688110238744" class="icon" viewBox="0 0 1024 1024" version="1.1" xmlns="http://www.w3.org/2000/svg" p-id="2531" xmlns:xlink="http://www.w3.org/1999/xlink" width="200" height="200"><path d="M767.94 960h-512c-38.38 0-64-25.59-64-64V256h-32c-17.67 0-32-14.33-32-32s14.33-32 32-32h192v-76.81c0-25.59 25.63-51.19 51.25-51.19h217.63c25.63 0 51.25 25.59 51.25 51.19V192h192c17.67 0 32 14.33 32 32s-14.33 32-32 32h-32v640c-0.13 38.41-25.76 64-64.13 64z m-512-704v640h512V256h-512z m160-128v64h192v-64h-192z m192 640c-17.67 0-32-14.33-32-32V416c0-17.67 14.33-32 32-32s32 14.33 32 32v320c0 17.67-14.33 32-32 32z m-192 0c-17.67 0-32-14.33-32-32V416c0-17.67 14.33-32 32-32s32 14.33 32 32v320c0 17.67-14.33 32-32 32z" p-id="2532" fill="#ffffff"></path></svg>