<?xml version="1.0" standalone="no"?><!DOCTYPE svg PUBLIC "-//W3C//DTD SVG 1.1//EN" "http://www.w3.org/Graphics/SVG/1.1/DTD/svg11.dtd"><svg t="1688110204327" class="icon" viewBox="0 0 1024 1024" version="1.1" xmlns="http://www.w3.org/2000/svg" p-id="2163" xmlns:xlink="http://www.w3.org/1999/xlink" width="200" height="200"><path d="M925.9 949.49H546.1c-18.83 0-34.1-15.27-34.1-34.1v-0.72c0-18.83 15.27-34.1 34.1-34.1h379.8c18.83 0 34.1 15.27 34.1 34.1v0.72c0 18.84-15.27 34.1-34.1 34.1zM84.73 935.7C71 935.7 64 928.8 64 915.03v-6.9L112.19 660l479.08-479.01c13.32-13.32 34.91-13.31 48.23 0.01l172.28 172.33c13.31 13.32 13.31 34.91-0.01 48.22L332.69 880.57 84.73 935.7z m530.65-675.44l-441.13 441.1-34.46 158.51 158.58-34.46 441.13-441.1-124.12-124.05zM925.9 811.65H718.41c-18.83 0-34.1-15.27-34.1-34.1v-0.72c0-18.83 15.27-34.1 34.1-34.1H925.9c18.83 0 34.1 15.27 34.1 34.1v0.72c0 18.83-15.27 34.1-34.1 34.1zM701.52 84.51c13.32-13.33 34.92-13.34 48.25-0.01l172.28 172.33c13.31 13.31 13.31 34.89 0.01 48.21-13.32 13.33-34.92 13.34-48.25 0.01L701.53 132.72c-13.31-13.32-13.31-34.89-0.01-48.21z" p-id="2164" fill="#ffffff"></path></svg>